<svg width="50" height="50" viewBox="0 0 50 50" fill="none" xmlns="http://www.w3.org/2000/svg">
<rect width="50" height="50" rx="10" fill="url(#paint0_linear_5_19)"/>
<path d="M35.7656 34.6719L32.6406 30.7656C32.55 30.65 32.4287 30.5624 32.2905 30.5126C32.1523 30.4629 32.0029 30.4531 31.8594 30.4844L25 32.0312L18.1406 30.4687C17.9972 30.4375 17.8477 30.4472 17.7096 30.497C17.5714 30.5467 17.45 30.6344 17.3594 30.75L14.2344 34.6562C14.1437 34.7706 14.0869 34.908 14.0703 35.053C14.0537 35.198 14.0781 35.3447 14.1406 35.4766C14.2017 35.6124 14.3003 35.728 14.4249 35.8097C14.5495 35.8913 14.6948 35.9357 14.8438 35.9375H35.1563C35.3035 35.9371 35.4477 35.8951 35.5721 35.8163C35.6965 35.7375 35.7961 35.6251 35.8594 35.4922C35.9219 35.3603 35.9463 35.2136 35.9297 35.0686C35.9132 34.9236 35.8563 34.7862 35.7656 34.6719Z" fill="white"/>
<path d="M14.4688 18.6406L24.8984 21.5781L35.6641 18.5547C35.7488 18.4822 35.8171 18.3924 35.8643 18.2913C35.9114 18.1903 35.9364 18.0803 35.9375 17.9688C35.9449 17.7954 35.8944 17.6246 35.794 17.4831C35.6936 17.3417 35.5489 17.2377 35.3828 17.1875L25.2266 14.0625C25.0781 14.0234 24.922 14.0234 24.7734 14.0625L14.6172 17.1875C14.473 17.2339 14.3454 17.3213 14.2499 17.4389C14.1545 17.5565 14.0953 17.6994 14.0795 17.8501C14.0638 18.0007 14.0922 18.1527 14.1613 18.2875C14.2304 18.4224 14.3372 18.5342 14.4688 18.6094V18.6406Z" fill="white"/>
<path d="M25.1094 23.1406C24.9718 23.1823 24.825 23.1823 24.6875 23.1406L19.1406 21.5781V25.2188C19.1427 26.5794 19.6841 27.8838 20.6463 28.8459C21.6084 29.8081 22.9128 30.3495 24.2734 30.3516H25.7266C27.0872 30.3495 28.3916 29.8081 29.3537 28.8459C30.3159 27.8838 30.8573 26.5794 30.8594 25.2188V21.5234L25.1094 23.1406Z" fill="white"/>
<defs>
<linearGradient id="paint0_linear_5_19" x1="0" y1="50" x2="50" y2="0" gradientUnits="userSpaceOnUse">
<stop stop-color="#895AF5"/>
<stop offset="1" stop-color="#8D5EF8" stop-opacity="0.66"/>
</linearGradient>
</defs>
</svg>
